<?xml version="1.0" encoding="UTF-8"?>
<svg version="1.1" xmlns="http://www.w3.org/2000/svg" width="512" height="512">
<path d="M0 0 C1.53720703 0.51046875 1.53720703 0.51046875 3.10546875 1.03125 C10.63434251 3.85577045 16.73254394 8.01969921 23 13 C23.84949219 13.64066406 24.69898438 14.28132813 25.57421875 14.94140625 C33.72734783 21.86040629 38.79112823 32.33274766 43 42 C43 42.66 43 43.32 43 44 C49.25339342 39.21902953 49.25339342 39.21902953 55.25 34.125 C66.40243408 24.48519491 87.61338427 8 103 8 C104.70549326 12.24299971 106.38623294 16.4953784 108.0625 20.75 C108.54783203 21.9565625 109.03316406 23.163125 109.53320312 24.40625 C110.21479492 26.14648438 110.21479492 26.14648438 110.91015625 27.921875 C111.54642944 29.52434082 111.54642944 29.52434082 112.19555664 31.15917969 C113.00998299 34.03525405 113.28445421 35.32044144 112 38 C109.5937467 39.24398756 107.33051171 40.2321623 104.8125 41.1875 C92.53825022 46.20102293 82.08542763 53.40313466 72 62 C71.19175781 62.66257812 70.38351562 63.32515625 69.55078125 64.0078125 C40.67438871 88.57767868 26.5576063 128.33507766 22 165 C22.82242188 165.30292969 23.64484375 165.60585937 24.4921875 165.91796875 C39.58388723 171.58171287 51.83463413 178.08723794 62 191 C62.9590625 190.01 62.9590625 190.01 63.9375 189 C64.95501171 187.9966204 65.97633826 186.99710448 67 186 C67.6084375 185.39542969 68.216875 184.79085937 68.84375 184.16796875 C77.92503421 175.57802268 89.00734711 169.48943959 101 166 C102.12341797 165.66355469 102.12341797 165.66355469 103.26953125 165.3203125 C120.26648681 161.09279033 139.63151714 163.9764544 155 172 C172.72241702 182.71684982 184.81968432 197.1346996 191 217 C191.24492187 217.76957031 191.48984375 218.53914062 191.7421875 219.33203125 C196.43537629 237.68689972 192.66718592 257.38310594 183.921875 273.80859375 C181.03170539 278.60792012 177.74505675 282.842987 174 287 C173.45859375 287.62261719 172.9171875 288.24523437 172.359375 288.88671875 C161.29717926 300.83496415 146.44486574 306.32755415 131 310 C131.680625 311.7634375 131.680625 311.7634375 132.375 313.5625 C138.99511031 333.73807428 136.14272952 354.0585936 126.875 372.75 C116.77804522 390.42514644 100.17509292 402.43157962 80.75 407.9375 C77.9854467 408.63701576 75.86665761 409 73 409 C73.41572266 410.17755859 73.41572266 410.17755859 73.83984375 411.37890625 C74.20207031 412.42949219 74.56429688 413.48007812 74.9375 414.5625 C75.29714844 415.59503906 75.65679687 416.62757813 76.02734375 417.69140625 C81.55088373 436.48031534 77.46750115 456.80574177 68.54296875 473.76953125 C59.5189671 489.11692092 45.48420885 499.64380083 29 506 C27.75476563 506.48146484 27.75476563 506.48146484 26.484375 506.97265625 C8.31020184 512.6852984 -12.95694513 509.92883391 -29.6875 501.4375 C-37.16923661 497.37895132 -43.08111552 492.05340458 -49 486 C-49.66515625 485.36707031 -50.3303125 484.73414063 -51.015625 484.08203125 C-63.60841303 471.23398401 -68.21343263 452.08968717 -68.25537109 434.71191406 C-68.14195829 425.80420337 -66.50342848 417.22544078 -63 409 C-63.98226562 408.87044922 -63.98226562 408.87044922 -64.984375 408.73828125 C-81.23226653 406.23684032 -94.39238678 398.39156627 -106 387 C-106.94166016 386.09507812 -106.94166016 386.09507812 -107.90234375 385.171875 C-120.35673461 372.18090041 -125.97083563 353.67794478 -126.04785156 336.015625 C-125.83408733 327.01135221 -124.24156383 318.39859719 -121 310 C-121.88300781 309.76925781 -122.76601562 309.53851563 -123.67578125 309.30078125 C-145.2415552 303.44026481 -162.35051949 293.05876345 -174.0234375 273.58984375 C-177.02920551 268.30329554 -179.1955334 262.80007123 -181 257 C-181.24492187 256.23042969 -181.48984375 255.46085937 -181.7421875 254.66796875 C-186.43537629 236.31310028 -182.66718592 216.61689406 -173.921875 200.19140625 C-171.03104543 195.39098397 -167.74101531 191.16169173 -164 187 C-163.22269531 186.08347656 -163.22269531 186.08347656 -162.4296875 185.1484375 C-153.56488714 175.39270243 -141.45700824 169.59801937 -129 166 C-128.1853125 165.75507813 -127.370625 165.51015625 -126.53125 165.2578125 C-108.34524669 160.71131167 -88.41512949 164.39523533 -72.453125 173.78515625 C-64.99474058 178.433165 -58.25749875 183.92957065 -53 191 C-52.071875 190.0409375 -52.071875 190.0409375 -51.125 189.0625 C-40.1763394 178.20636329 -26.4128998 166 -10 166 C-9.87044922 164.55947266 -9.87044922 164.55947266 -9.73828125 163.08984375 C-7.97489188 145.27894736 -4.23339845 127.79038816 2 111 C0.85660156 111.15855469 -0.28679687 111.31710938 -1.46484375 111.48046875 C-22.01836277 114.02312557 -40.80688688 109.71797587 -57.9609375 97.97265625 C-60.77003923 95.76079755 -63.38847116 93.4423312 -66 91 C-66.54366211 90.49726562 -67.08732422 89.99453125 -67.64746094 89.4765625 C-87.43941092 71.02026559 -103.03214511 46.59575249 -112 21 C-112 20.01 -112 19.02 -112 18 C-78.36734331 4.01119589 -36.64521704 -12.2977183 0 0 Z M-70 35 C-68.49197466 39.39222682 -66.14152362 42.95768863 -63.4375 46.6875 C-62.99277344 47.30326904 -62.54804688 47.91903809 -62.08984375 48.5534668 C-58.0703057 54.03822354 -53.76590784 59.14354814 -49 64 C-48.24332031 64.78117187 -47.48664063 65.56234375 -46.70703125 66.3671875 C-37.11351322 75.66335342 -25.75610739 81.43711856 -12.28515625 81.2734375 C-1.52995073 80.37823609 7.44051788 75.06296914 15.83203125 68.5859375 C17.20326749 67.03142168 17.20326749 67.03142168 17.1015625 64.79296875 C15.10786211 53.89298383 10.31542546 41.6592198 1 35 C-8.46124309 29.23019274 -17.38573096 27.60832461 -28.3125 27.625 C-29.36195801 27.62588623 -30.41141602 27.62677246 -31.49267578 27.62768555 C-44.74606997 27.82551239 -57.47263791 30.74906993 -70 35 Z M-141.875 209.015625 C-149.89850832 219.20548057 -153.13729615 230.05232078 -152 243 C-149.9678194 254.00978859 -144.87585791 263.4486355 -136 270.4375 C-126.54153732 276.83532953 -116.53828593 280.33134068 -105 279 C-94.57235618 276.67576614 -86.20830946 272.98758616 -79 265 C-77.7625 263.7315625 -77.7625 263.7315625 -76.5 262.4375 C-69.95740493 254.46630031 -67.06447415 243.15470788 -68 233 C-70.19545469 220.32859613 -75.30178026 210.01209792 -85.86328125 202.41796875 C-103.98798567 190.39005704 -126.88008901 192.89609569 -141.875 209.015625 Z M-21 204 C-22.3303125 204.8971875 -22.3303125 204.8971875 -23.6875 205.8125 C-32.27597385 213.93673202 -36.89945394 225.11578655 -37.3125 236.8125 C-37.04494194 246.94822897 -34.16418331 255.0228216 -28 263 C-27.1028125 264.3303125 -27.1028125 264.3303125 -26.1875 265.6875 C-18.06326798 274.27597385 -6.88421345 278.89945394 4.8125 279.3125 C14.94822897 279.04494194 23.0228216 276.16418331 31 270 C31.886875 269.401875 32.77375 268.80375 33.6875 268.1875 C42.27597385 260.06326798 46.89945394 248.88421345 47.3125 237.1875 C47.04494194 227.05177103 44.16418331 218.9771784 38 211 C37.401875 210.113125 36.80375 209.22625 36.1875 208.3125 C29.06255099 200.78041105 18.61514843 195.56731765 8.2734375 194.796875 C-3.28725933 194.60990955 -11.77705287 197.00328149 -21 204 Z M89 209 C88.175 209.845625 87.35 210.69125 86.5 211.5625 C79.95740493 219.53369969 77.06447415 230.84529212 78 241 C80.1570483 253.44973544 85.20455639 263.97685426 95.58203125 271.51171875 C106.78954983 278.41004602 118.24270235 280.65480306 131.0625 277.875 C136.90327965 276.29093251 141.24579471 273.67146703 146 270 C146.86625 269.4225 147.7325 268.845 148.625 268.25 C157.65846439 259.6919811 162.04150062 248.80219286 162.5 236.4375 C162.02536201 224.11174482 157.0266417 213.55002841 147.984375 205.12109375 C129.65357208 190.72347492 105.01593747 191.20451393 89 209 Z M-85.10546875 309.35546875 C-92.5803936 319.38047457 -96.16662236 330.93244942 -94.4375 343.375 C-92.17247656 354.05081047 -86.55899921 364.28739664 -77.61328125 370.71484375 C-67.41754647 377.10083996 -57.15853823 380.35315393 -45 378.4375 C-32.98056766 375.55361044 -22.84820675 368.95333424 -16.35546875 358.45703125 C-10.47936909 347.80554223 -9.15524414 336.63304288 -11.6953125 324.74609375 C-13.70802807 318.66566311 -16.78437868 313.78447625 -21 309 C-21.52464844 308.38253906 -22.04929687 307.76507813 -22.58984375 307.12890625 C-29.06193664 300.0476752 -38.35572345 295.48395592 -47.91796875 294.6640625 C-62.77196907 294.34558941 -74.82265614 297.85169138 -85.10546875 309.35546875 Z M44 299 C43.30777344 299.36222656 42.61554688 299.72445313 41.90234375 300.09765625 C30.85926372 306.37455145 24.36612585 315.87899418 21 328 C20.76166664 330.77963208 20.61876166 333.4111248 20.625 336.1875 C20.62661133 336.93491455 20.62822266 337.6823291 20.62988281 338.45239258 C20.82664869 347.40620437 23.52390476 354.86448196 29 362 C29.721875 362.99 30.44375 363.98 31.1875 365 C38.09660069 373.04657458 48.62146694 377.7188766 59 378.875 C71.15151014 379.47947563 81.89421601 375.40338097 91.375 367.75 C99.35691081 360.23273265 104.22672222 349.57823193 104.9921875 338.6953125 C105.02437881 327.58931049 101.3880475 317.5933502 94.75 308.6875 C84.73881287 298.90383985 74.10978753 294.36956909 60.20898438 294.52490234 C54.18470979 294.76938524 49.2930881 296.03781308 44 299 Z M-25.17578125 406.96875 C-33.66162006 415.79018696 -37.42430003 426.78270828 -37.27734375 438.8984375 C-36.1267584 451.76554695 -30.21556709 461.95299386 -20.51171875 470.20703125 C-9.97755929 477.72675006 1.40568589 479.24520055 14 478 C25.87022443 475.07830017 35.56726 467.27567558 42 457 C47.88376691 444.99997691 48.56280944 433.76071073 44.25390625 421.07421875 C39.84555314 410.26620038 31.47977333 402.04581679 21 397 C4.33933901 391.02731021 -12.17519012 395.20519896 -25.17578125 406.96875 Z " fill="#000000" transform="translate(251,3)"/>
</svg>
